PathFileType	4	TRC_standard.trc
DataRate	CameraRate	NumFrames	NumMarkers	Units	OrigDataRate	OrigDataStartFrame	OrigNumFrames
100.0	100.0	5	37	mm	100.0	1	2234	
Frame#	Time	T10			C7			CLAV			RACR1			LACR1			RPSI			LPSI			RASI			LASI			LTH2			LTH3			LTH1			RTH2			RTH3			RTH1			RLFC			RMFC			RTB1			RTB3			RTB2			LLFC			LMFC			LTB1			LTB3			LTB2			LLMAL			LCAL			LMMAL			RLMAL			RMMAL			RCAL			RMT5			RMT1			RToe			LMT5			LMT1			LToe			
		X1	Y1	Z1	X2	Y2	Z2	X3	Y3	Z3	X4	Y4	Z4	X5	Y5	Z5	X6	Y6	Z6	X7	Y7	Z7	X8	Y8	Z8	X9	Y9	Z9	X10	Y10	Z10	X11	Y11	Z11	X12	Y12	Z12	X13	Y13	Z13	X14	Y14	Z14	X15	Y15	Z15	X16	Y16	Z16	X17	Y17	Z17	X18	Y18	Z18	X19	Y19	Z19	X20	Y20	Z20	X21	Y21	Z21	X22	Y22	Z22	X23	Y23	Z23	X24	Y24	Z24	X25	Y25	Z25	X26	Y26	Z26	X27	Y27	Z27	X28	Y28	Z28	X29	Y29	Z29	X30	Y30	Z30	X31	Y31	Z31	X32	Y32	Z32	X33	Y33	Z33	X34	Y34	Z34	X35	Y35	Z35	X36	Y36	Z36	X37	Y37	Z37	
1	0	796.20813	1238.427	-820.66406	803.46381	1496.4923	-697.50623	802.76093	1336.9237	-600.73981	642.73944	1453.3202	-675.1853	977.328	1434.7365	-680.59808	725.54321	1019.8868	-884.49713	813.29657	1027.3503	-881.37952	646.27484	993.57538	-654.19232	900.32288	989.10516	-643.26538	931.79199	708.04297	-703.03662				925.7771	854.42822	-657.50891	626.26855	739.1795	-590.98273	585.93024	798.04578	-643.12872	658.76416	848.57336	-617.95599	606.91962	519.54559	-621.10889				641.79565	403.51846	-613.2049	622.48389	344.64557	-671.24628	644.83478	292.89554	-684.33984	908.48468	501.95914	-790.03485				851.82764	386.62979	-773.62842	880.94867	322.13861	-802.29523	836.98627	271.52805	-806.9494	857.88928	84.316254	-897.55609				817.57666	46.520962	-960.88873	635.64874	140.71581	-812.70416				684.54077	121.42962	-881.30237	626.14893	65.274292	-727.83752	699.3587	60.108498	-699.16138				870.91669	40.726246	-782.6377	794.56604	52.746311	-755.896			
2	0.01	796.22937	1238.4633	-821.03455	803.29358	1496.3529	-697.62592	802.62067	1336.7384	-600.99243	642.61523	1453.0918	-675.49457	977.18976	1434.6804	-680.62225	725.34064	1020.0023	-884.97681	813.08514	1027.4352	-881.91254	646.28046	993.59192	-654.64667	900.41254	988.88751	-643.91791	931.51666	707.81964	-704.16327				925.59204	854.07867	-658.57886	626.54333	739.534	-590.97339	585.98486	798.22382	-643.18414	658.77777	848.84979	-618.25208	607.42432	519.86786	-619.92993				642.44049	404.22577	-610.09851	622.82239	344.39838	-666.57214	645.14612	292.45508	-678.9411	908.38934	501.95206	-791.90662				851.68964	386.60339	-775.97284	880.81519	322.1958	-804.77643	836.85663	271.56787	-809.49207	857.88586	84.705635	-900.56183				817.58929	47.051285	-963.79724	635.49878	138.20261	-804.80127				684.24414	117.61803	-873.14838	625.94531	64.675171	-719.00549	699.15265	59.865555	-690.30823				870.80096	40.754303	-785.43829	794.50793	52.71241	-758.86273			
3	0.02	796.22986	1238.4941	-821.44281	803.06488	1496.1833	-697.74756	802.435	1336.5157	-601.26843	642.44122	1452.8124	-675.83496	977.00208	1434.6123	-680.63837	725.08606	1020.1337	-885.51715	812.81964	1027.5343	-882.51544	646.27509	993.59863	-655.15411	900.50513	988.6261	-644.65741	931.18457	707.56055	-705.52118				925.36755	853.66187	-659.82593	626.85822	739.9234	-590.98102	586.03784	798.41125	-643.25012	658.78491	849.15216	-618.58643	608.00757	520.22626	-618.5788				643.19336	405.06448	-606.45355	623.22388	344.12485	-661.04816	645.52179	291.97662	-672.5116	908.26746	501.96265	-794.16083				851.52118	386.5878	-778.79333	880.65637	322.28357	-807.77795	836.70148	271.63751	-812.57642	857.87494	85.203224	-904.23419				817.59796	47.740952	-967.40662	635.34009	135.27727	-795.1969				683.90381	113.13227	-863.19556	625.7597	64.071945	-708.26514	698.96594	59.716724	-679.57318				870.66132	40.785542	-788.95752	794.4342	52.669369	-762.54956			
4	0.03	796.13916	1238.4901	-821.86487	802.66473	1495.9445	-697.83215	802.11847	1336.2124	-601.54388	642.2099	1452.4834	-676.19025	976.75873	1434.5322	-680.64124	724.69727	1020.2861	-886.12244	812.41565	1027.657	-883.20001	646.22327	993.55957	-655.70502	900.57489	988.26978	-645.50287	930.80011	707.27277	-707.09326				925.10547	853.18408	-661.21942	627.20343	740.32898	-591.01239	586.08331	798.59546	-643.32513	658.7821	849.46552	-618.94611	608.65302	520.60522	-617.09723				644.0365	406.01962	-602.34912	623.6814	343.8371	-654.77972	645.95734	291.48514	-665.15564	908.11768	501.99808	-796.77136				851.32349	386.58929	-782.05597	880.47455	322.40808	-811.26978	836.52301	271.74426	-816.17456	857.85443	85.814117	-908.54901				817.6004	48.601036	-971.71143	635.18359	132.01364	-783.97675				683.53125	108.06711	-851.51715	625.61707	63.516235	-695.71124	698.82452	59.717991	-667.06219				870.49963	40.818611	-793.20374	794.34412	52.616959	-766.95312			
5	0.04	796.0567	1238.4869	-822.25671	802.29602	1495.724	-697.91125	801.82672	1335.9318	-601.79962	641.91498	1452.1085	-676.5426	976.45496	1434.441	-680.62518	724.3385	1020.4269	-886.68298	812.04285	1027.7703	-883.8338	646.1756	993.52411	-656.2157	900.63983	987.94031	-646.28607	930.36957	706.96521	-708.85217				924.80878	852.65417	-662.72144	627.56726	740.72986	-591.07336	586.11554	798.76318	-643.40704	658.76587	849.77319	-619.31641	609.341	520.98712	-615.53448				644.94727	407.07068	-597.88629	624.18542	343.54831	-647.90656	646.44617	291.00751	-657.01935	907.93951	502.065	-799.69788				851.09845	386.61398	-785.70966	880.27344	322.57489	-815.20337	836.32446	271.89502	-820.23938	857.82208	86.540321	-913.45807				817.59436	49.63776	-976.67877	635.04156	128.5042	-771.29504				683.14124	102.54749	-838.25842	625.5437	63.061802	-681.51666	698.75452	59.924576	-652.95868				870.3186	40.852032	-798.15472	794.23804	52.55542	-772.04156			
